<mxfile host="Electron" modified="2025-04-15T08:02:41.225Z" agent="Mozilla/5.0 (Windows NT 10.0; Win64; x64) AppleWebKit/537.36 (KHTML, like Gecko) draw.io/24.5.3 Chrome/124.0.6367.207 Electron/30.0.6 Safari/537.36" etag="Z3_m9JZlHWsuxWMuicFH" version="24.5.3" type="device">
  <diagram name="Seite-1" id="HLHpH_ou4ANuys2L_7Qh">
    <mxGraphModel dx="920" dy="1023" grid="1" gridSize="10" guides="1" tooltips="1" connect="1" arrows="1" fold="1" page="1" pageScale="1" pageWidth="827" pageHeight="1169" math="0" shadow="0">
      <root>
        <mxCell id="0" />
        <mxCell id="1" parent="0" />
        <mxCell id="vn1dnEoQ3g9eWZXEqQMI-3" value="" style="endArrow=classic;html=1;rounded=0;" parent="1" edge="1">
          <mxGeometry width="50" height="50" relative="1" as="geometry">
            <mxPoint x="200" y="640" as="sourcePoint" />
            <mxPoint x="600" y="640" as="targetPoint" />
          </mxGeometry>
        </mxCell>
        <mxCell id="vn1dnEoQ3g9eWZXEqQMI-4" value="" style="endArrow=classic;html=1;rounded=0;" parent="1" edge="1">
          <mxGeometry width="50" height="50" relative="1" as="geometry">
            <mxPoint x="400" y="840" as="sourcePoint" />
            <mxPoint x="400" y="440" as="targetPoint" />
          </mxGeometry>
        </mxCell>
        <mxCell id="vn1dnEoQ3g9eWZXEqQMI-14" value="&lt;div style=&quot;&quot;&gt;&lt;span style=&quot;background-color: initial;&quot;&gt;im Produkt umgesetzte&amp;nbsp;&lt;/span&gt;&lt;span style=&quot;background-color: initial;&quot;&gt;Merkmale&lt;/span&gt;&lt;/div&gt;" style="text;html=1;align=right;verticalAlign=middle;whiteSpace=wrap;rounded=0;fontStyle=1" parent="1" vertex="1">
          <mxGeometry x="490" y="600" width="110" height="30" as="geometry" />
        </mxCell>
        <mxCell id="vn1dnEoQ3g9eWZXEqQMI-24" value="viel" style="text;html=1;align=right;verticalAlign=middle;whiteSpace=wrap;rounded=0;rotation=0;" parent="1" vertex="1">
          <mxGeometry x="550" y="640" width="50" height="30" as="geometry" />
        </mxCell>
        <mxCell id="hARTjh3Sy_JEfjSnx1Wy-9" value="" style="curved=1;endArrow=none;html=1;rounded=0;fillColor=#d5e8d4;strokeColor=#82b366;strokeWidth=2;endFill=0;" parent="1" edge="1">
          <mxGeometry width="50" height="50" relative="1" as="geometry">
            <mxPoint x="200" y="630" as="sourcePoint" />
            <mxPoint x="600" y="440" as="targetPoint" />
            <Array as="points">
              <mxPoint x="310" y="615" />
              <mxPoint x="520" y="540" />
            </Array>
          </mxGeometry>
        </mxCell>
        <mxCell id="mVladouorld5TkecgLpe-6" value="sehr zufrieden" style="text;html=1;align=left;verticalAlign=middle;whiteSpace=wrap;rounded=0;rotation=0;" parent="1" vertex="1">
          <mxGeometry x="410" y="440" width="70" height="30" as="geometry" />
        </mxCell>
        <mxCell id="mVladouorld5TkecgLpe-9" value="Kundenzufriedenheit" style="text;html=1;align=right;verticalAlign=middle;whiteSpace=wrap;rounded=0;rotation=0;fontStyle=1" parent="1" vertex="1">
          <mxGeometry x="240" y="440" width="150" height="30" as="geometry" />
        </mxCell>
        <mxCell id="8k6MAeEX3BmLA1CNHM-N-1" value="vÃ¶llig unzufrieden" style="text;html=1;align=left;verticalAlign=middle;whiteSpace=wrap;rounded=0;rotation=0;" vertex="1" parent="1">
          <mxGeometry x="414" y="810" width="70" height="30" as="geometry" />
        </mxCell>
        <mxCell id="8k6MAeEX3BmLA1CNHM-N-2" value="wenig" style="text;html=1;align=left;verticalAlign=middle;whiteSpace=wrap;rounded=0;rotation=0;" vertex="1" parent="1">
          <mxGeometry x="200" y="640" width="50" height="30" as="geometry" />
        </mxCell>
        <mxCell id="8k6MAeEX3BmLA1CNHM-N-3" value="Begeisterungsmerkmale" style="text;html=1;align=right;verticalAlign=middle;whiteSpace=wrap;rounded=0;rotation=0;fontStyle=1;fillColor=none;strokeColor=none;fontColor=#82B366;" vertex="1" parent="1">
          <mxGeometry x="200" y="570" width="150" height="30" as="geometry" />
        </mxCell>
        <mxCell id="8k6MAeEX3BmLA1CNHM-N-4" value="" style="curved=1;endArrow=none;html=1;rounded=0;fillColor=#f8cecc;strokeColor=#b85450;strokeWidth=2;endFill=0;" edge="1" parent="1">
          <mxGeometry width="50" height="50" relative="1" as="geometry">
            <mxPoint x="240" y="840" as="sourcePoint" />
            <mxPoint x="600" y="645" as="targetPoint" />
            <Array as="points">
              <mxPoint x="300" y="735" />
              <mxPoint x="450" y="650" />
            </Array>
          </mxGeometry>
        </mxCell>
        <mxCell id="8k6MAeEX3BmLA1CNHM-N-5" value="" style="endArrow=none;html=1;rounded=0;fillColor=#b1ddf0;strokeColor=#10739e;strokeWidth=2;" edge="1" parent="1">
          <mxGeometry width="50" height="50" relative="1" as="geometry">
            <mxPoint x="200" y="800" as="sourcePoint" />
            <mxPoint x="600" y="480" as="targetPoint" />
          </mxGeometry>
        </mxCell>
        <mxCell id="8k6MAeEX3BmLA1CNHM-N-6" value="&lt;font color=&quot;#b85450&quot;&gt;Basismerkmale&lt;/font&gt;" style="text;html=1;align=left;verticalAlign=middle;whiteSpace=wrap;rounded=0;rotation=0;fontStyle=1;fillColor=none;strokeColor=none;fontColor=#82B366;" vertex="1" parent="1">
          <mxGeometry x="260" y="810" width="150" height="30" as="geometry" />
        </mxCell>
        <mxCell id="8k6MAeEX3BmLA1CNHM-N-7" value="&lt;font color=&quot;#10739e&quot;&gt;Leistungsmerkmale&lt;/font&gt;" style="text;html=1;align=left;verticalAlign=middle;whiteSpace=wrap;rounded=0;rotation=0;fontStyle=1;fillColor=none;strokeColor=none;fontColor=#82B366;" vertex="1" parent="1">
          <mxGeometry x="200" y="680" width="150" height="30" as="geometry" />
        </mxCell>
      </root>
    </mxGraphModel>
  </diagram>
</mxfile>
